<?xml version="1.0" encoding="UTF-8"?>
<svg id="Layer_2" data-name="Layer 2" xmlns="http://www.w3.org/2000/svg" viewBox="0 0 512 512">
  <defs>
    <style>
      .cls-1 {
        fill: #fff;
      }

      .cls-2 {
        fill: #78946f;
      }

      .cls-3 {
        fill: #1d6dae;
      }

      .cls-4 {
        fill: #f15fab;
      }

      .cls-5 {
        fill: #28a9bd;
      }

      .cls-6 {
        fill: #9c7cb3;
      }

      .cls-7 {
        fill: #fbcb15;
      }
    </style>
  </defs>
  <g id="Layer_2_copy" data-name="Layer 2 copy">
    <g>
      <g>
        <path class="cls-3" d="M106.01,455.31c-9.47-5.45-9.53-5.51-17.75,1.83-10.86,9.69-21.61,19.5-32.42,29.25-1.2,1.08-2.33,2.31-3.69,3.12-2.15,1.28-4.48,1.13-6.2-.75-1.98-2.15-.4-3.94,1.17-5.41,10.42-9.69,20.87-19.33,31.34-28.97,2.73-2.52,5.33-5.26,8.35-7.38,3.61-2.53,2.54-4.46,.04-6.86-8.52-8.17-17.09-16.32-24.44-25.61-4.11-5.19-8.53-10.16-11.73-16.02-.06-2.19,.47-3.76,2.47-5.31,10.55-8.23,20.9-16.71,31.27-25.16,13.62-11.09,27.26-22.15,40.79-33.35,10.06-8.33,20.22-16.51,30.45-24.63,13.88-11.03,27.27-22.67,40.98-33.92,16.45-13.49,33.06-26.79,49.53-40.25,14.85-12.14,29.57-24.44,44.42-36.59,16.72-13.67,33.51-27.26,50.28-40.87,14.89-12.09,29.87-24.06,44.66-36.27,11.06-9.13,22-18.43,32.71-27.97,2.01-1.79,3.67-2.87,6.22-2.63,8.19,7.98,15.5,16.73,21.87,26.21,4.29,6.38,9.84,11.97,12.43,19.45-.91,.66-1.88,1.24-2.71,1.99-10.69,9.67-21.33,19.38-32.03,29.04-40.98,37.01-81.99,73.98-122.94,111.02-24.74,22.38-49.36,44.88-74.08,67.27-32.28,29.24-64.56,58.49-96.97,87.59-7.94,7.13-15.47,14.76-24.03,21.18Z"/>
        <path class="cls-4" d="M106.01,455.31c8.56-6.43,16.09-14.05,24.03-21.18,32.41-29.09,64.69-58.35,96.97-87.59,24.72-22.39,49.34-44.9,74.08-67.27,40.95-37.04,81.97-74.01,122.94-111.02,10.69-9.66,21.34-19.37,32.03-29.04,.83-.75,1.8-1.33,2.71-1.99,7.44,10.47,11.77,22.54,17.19,34.56,5.57-2.12,8.57-6.82,12.76-9.87,2.21-1.61,4.22-3.5,6.23-5.36,2.14-1.98,4.7-2.39,6.37-.17,1.72,2.28,1.64,5.03-1.05,7.27-6.09,5.06-11.96,10.38-18.08,15.4-2.07,1.7-2.43,3.21-1.77,5.82,1.47,5.79,3.9,11.33,4.45,17.35-.69,.36-1.49,.6-2.05,1.11-20.23,18.39-40.44,36.8-60.64,55.23-25.33,23.13-50.64,46.28-75.96,69.42-28.9,26.41-57.84,52.8-86.71,79.24-24.22,22.19-48.29,44.55-72.62,66.61-5.85,5.3-11.22,11.21-17.84,15.64-17.72-6.6-34.6-14.88-50.47-25.19-4.32-2.81-8.68-5.54-12.58-8.94Z"/>
        <path class="cls-5" d="M387.77,65.41c.23-.11,.45-.24,.65-.4,1.42,.29,2.27-.55,3.04-1.55,5.12,1.19,8.12,5.5,12.01,8.45,7.66,5.79,14.76,12.28,21,19.65-2.55-.23-4.21,.84-6.22,2.63-10.71,9.54-21.65,18.84-32.71,27.97-14.79,12.21-29.77,24.18-44.66,36.27-16.77,13.61-33.56,27.2-50.28,40.87-14.85,12.15-29.57,24.45-44.42,36.59-16.47,13.46-33.08,26.76-49.53,40.25-13.71,11.24-27.1,22.89-40.98,33.92-10.22,8.12-20.39,16.31-30.45,24.63-13.53,11.2-27.17,22.27-40.79,33.35-10.38,8.44-20.73,16.93-31.27,25.16-2,1.56-2.53,3.13-2.47,5.31-2.81-3.93-5.82-7.74-8.37-11.84-2.1-3.37-3.95-3.59-6.81-.92-5.33,4.97-10.87,9.72-16.29,14.59-1.5,1.35-3.04,2.49-5.19,1.99-1.68-.39-2.95-1.35-3.42-3.09-.55-2.02,.57-3.5,1.91-4.69,5.93-5.27,11.78-10.65,17.97-15.59,3.91-3.12,4.32-6.02,2.05-10.41-3.26-6.31-6.58-12.67-8.39-19.64,1.1-.65,2.28-1.18,3.28-1.96,14.21-11.12,28.4-22.28,42.59-33.43"/>
        <path class="cls-5" d="M383.95,68.42c.23-.1,.44-.23,.64-.39"/>
        <path class="cls-5" d="M379.04,72.24c.23-.11,.45-.24,.66-.39"/>
        <path class="cls-5" d="M186.79,222.28c.23-.11,.45-.24,.66-.4,4.32-.97,6.97-4.5,10.19-7.03,5.27-4.14,11.25-7.5,15.37-13.03,.57-.41,1.13-.83,1.7-1.24,1.79,.03,2.74-.98,3.2-2.6,.23-.1,.45-.23,.65-.38,1.82,.09,2.74-.97,3.2-2.58,.23-.11,.45-.24,.65-.4,2.32-.03,3.47-1.5,4.24-3.45,.23-.1,.45-.23,.65-.38,7.48-3.59,13.27-9.54,19.74-14.51,3.38-2.6,7.63-4.36,9.68-8.52,.56-.42,1.12-.84,1.68-1.27,1.78,.01,2.73-1,3.2-2.61,.23-.1,.45-.23,.65-.39,1.82,.09,2.76-.93,3.21-2.57,.23-.11,.45-.24,.65-.4,5.6-2.02,9.53-6.49,14.01-10.04,5.25-4.16,11.38-7.35,15.38-13.02l1.7-1.27c1.83,.1,2.75-.94,3.21-2.57,.23-.11,.45-.24,.65-.4,1.87,.13,2.77-.93,3.17-2.6,.57-.42,1.14-.83,1.71-1.25,7.5-3.57,13.28-9.54,19.75-14.51,3.38-2.59,7.65-4.33,9.66-8.53,.23-.1,.45-.23,.66-.39,1.86,.13,2.77-.92,3.19-2.58,.56-.42,1.13-.85,1.69-1.27,1.81,.06,2.76-.94,3.2-2.58,.23-.1,.45-.23,.66-.39,5.52-2,9.42-6.39,13.83-9.9,5.3-4.21,11.48-7.47,15.57-13.14,.57-.42,1.13-.84,1.7-1.25"/>
        <path class="cls-5" d="M178.05,229.1c.24-.11,.46-.24,.66-.4,2.34,.02,3.47-1.49,4.26-3.42,.23-.1,.45-.23,.64-.39"/>
        <path class="cls-5" d="M137.14,261.12l6.64-5.11"/>
        <path class="cls-5" d="M133.28,264.07c.58-.41,1.17-.83,1.75-1.24"/>
        <path class="cls-5" d="M128.38,267.92c.59-.42,1.18-.84,1.77-1.26"/>
        <path class="cls-5" d="M124.53,270.88c.58-.42,1.16-.85,1.74-1.27"/>
        <path class="cls-5" d="M119.63,274.73c.59-.43,1.18-.86,1.77-1.29"/>
        <path class="cls-5" d="M115.8,277.7c.26-.11,.49-.25,.71-.42"/>
        <path class="cls-5" d="M111.97,280.68c.25-.1,.48-.24,.69-.4"/>
        <path class="cls-5" d="M102.16,288.38c2.21-1.71,4.43-3.42,6.64-5.14"/>
        <path class="cls-5" d="M93.43,295.21c2.22-1.7,4.44-3.39,6.66-5.09"/>
        <path class="cls-5" d="M89.59,298.17l1.74-1.26"/>
        <path class="cls-5" d="M84.69,302.02c.59-.43,1.18-.85,1.76-1.28"/>
        <path class="cls-5" d="M80.86,304.99l1.74-1.26"/>
        <path class="cls-5" d="M75.94,308.83c.59-.43,1.18-.85,1.77-1.28"/>
        <path class="cls-5" d="M72.12,311.82c.58-.42,1.16-.84,1.74-1.26"/>
        <path class="cls-4" d="M73.86,310.56c-.58,.42-1.16,.84-1.74,1.26"/>
        <path class="cls-4" d="M77.71,307.56c-.59,.43-1.18,.85-1.77,1.28"/>
        <path class="cls-4" d="M82.6,303.73c-.58,.42-1.16,.84-1.74,1.26"/>
        <path class="cls-4" d="M86.45,300.74c-.59,.43-1.18,.85-1.76,1.28"/>
        <path class="cls-4" d="M91.33,296.91c-.58,.42-1.16,.84-1.74,1.26"/>
        <path class="cls-4" d="M100.09,290.12c-2.22,1.7-4.44,3.39-6.66,5.09"/>
        <path class="cls-4" d="M108.8,283.24c-2.21,1.71-4.43,3.42-6.64,5.14"/>
        <path class="cls-4" d="M112.66,280.28c-.21,.17-.44,.3-.69,.4"/>
        <path class="cls-4" d="M116.52,277.28c-.22,.17-.46,.31-.71,.42"/>
        <path class="cls-4" d="M121.39,273.44c-.59,.43-1.18,.86-1.77,1.29"/>
        <path class="cls-4" d="M126.28,269.6c-.58,.42-1.16,.85-1.75,1.27"/>
        <path class="cls-4" d="M130.15,266.66c-.59,.42-1.18,.84-1.77,1.26"/>
        <path class="cls-4" d="M135.04,262.82c-.58,.41-1.17,.83-1.75,1.24"/>
        <path class="cls-4" d="M143.78,256.01c-2.21,1.7-4.42,3.41-6.64,5.11"/>
        <path class="cls-4" d="M175.83,229.8c-8.82,6.8-17.68,13.55-26.34,20.56"/>
        <path class="cls-4" d="M178.71,228.7c-.21,.16-.43,.29-.66,.4"/>
        <path class="cls-4" d="M183.61,224.89c-.2,.15-.41,.28-.65,.38"/>
        <path class="cls-4" d="M375.85,74.84c-.57,.42-1.13,.84-1.7,1.25-1.86-.31-2.98,1.13-4.18,2.04-6.72,5.14-13.4,10.35-19.95,15.71-1.91,1.56-4.71,2.34-5.28,5.29-.2,.16-.42,.29-.66,.39-1.91-.18-2.85,.84-3.2,2.59-.56,.42-1.13,.85-1.69,1.27-1.86-.13-2.82,.85-3.19,2.58-.2,.16-.42,.29-.66,.39-.75,.2-1.64,.2-2.21,.64-6.09,4.68-12.25,9.27-18.12,14.21-3.11,2.61-7.41,3.96-9.08,8.19-.57,.42-1.14,.83-1.71,1.25-1.83-.09-2.8,.89-3.17,2.6-.2,.16-.42,.29-.65,.39-1.9-.19-2.86,.81-3.21,2.57-.57,.42-1.13,.84-1.7,1.27-7.23,3.21-12.72,8.89-18.87,13.6-3.71,2.84-8.24,4.95-10.52,9.45-.2,.16-.42,.29-.65,.4-1.9-.19-2.86,.81-3.21,2.57-.2,.16-.42,.28-.65,.39-1.95-.23-2.89,.81-3.19,2.61-.56,.42-1.12,.84-1.68,1.27-.75,.2-1.65,.19-2.21,.63-6.09,4.68-12.26,9.27-18.13,14.21-3.11,2.61-7.42,3.95-9.08,8.2-.2,.15-.41,.28-.65,.38-2.44-.12-3.57,1.39-4.24,3.45-.2,.16-.42,.3-.65,.4-1.89-.16-2.86,.82-3.2,2.58-.2,.16-.42,.28-.65,.38-1.96-.24-2.89,.79-3.2,2.6-.57,.41-1.13,.83-1.7,1.24-.74,.2-2.2,.65-2.2,.65,0,0-12.15,9.31-18.07,14.15-1.9,1.56-4.7,2.33-5.29,5.26-.2,.16-.42,.29-.66,.4"/>
        <path class="cls-4" d="M379.7,71.85c-.2,.16-.42,.29-.66,.39"/>
        <path class="cls-4" d="M384.59,68.03c-.2,.16-.41,.29-.64,.39"/>
        <path class="cls-4" d="M70.01,313.53c-14.19,11.15-28.38,22.31-42.59,33.43-.99,.78-2.18,1.31-3.28,1.96-2.32-2.9-2.45-7.02-5.37-9.87-3.94,1.49-6.54,4.72-9.73,7.08-2.78,2.05-5.78,4.17-8.25,.37-2.27-3.5,.81-5.67,3.44-7.34,3.59-2.29,6.42-5.41,9.54-8.22,2.07-1.87,2.6-4.11,1.77-6.61-4.28-12.84-6.01-26.13-7.18-39.54,4.03-.34,6.46-3.51,9.5-5.54,36.49-24.33,72.95-48.7,109.38-73.1,44.92-30.08,89.79-60.22,134.72-90.29,34.57-23.14,69.19-46.22,103.78-69.32,3.32,.96,6.09,2.99,8.73,5.05,2.91,2.27,5.42,2.21,8.26-.02,9.78-7.69,19.61-15.3,29.43-22.93,2.16-1.68,4.45-3.2,6.56-4.95,1.9-1.57,3.75-2.91,5.79-.44,2.08,2.51,2.15,4.96-.65,7.12-5.38,4.14-10.73,8.31-16.11,12.45-6.78,5.22-13.57,10.43-20.49,15.75-.21,1.72,2.19,2.18,2.16,3.88-.98,.6-.9,1.62-1.02,2.56-.2,.16-.42,.29-.65,.4"/>
        <path class="cls-7" d="M169.06,489.44c6.62-4.43,11.99-10.34,17.84-15.64,24.34-22.06,48.4-44.42,72.62-66.61,28.87-26.45,57.8-52.83,86.71-79.24,25.32-23.14,50.63-46.29,75.96-69.42,20.19-18.43,40.41-36.84,60.64-55.23,.56-.51,1.36-.75,2.05-1.11,3.04,12.55,4.51,25.38,6.61,38.48,4.73-2.06,7.75-5.53,11.38-8.11,1.45-1.03,2.78-2.24,4.58-2.62,1.75-.37,3.29,.06,4.1,1.76,.75,1.56,.63,2.88-.84,4.3-4.88,4.73-9.86,9.34-15.33,13.39-1.91,1.41-3.29,3.05-3.91,5.33-2.03-.58-2.82,1.22-3.95,2.2-10.13,8.82-20.22,17.68-30.31,26.54-36,31.6-72,63.2-108,94.8-35.15,30.85-70.36,61.63-105.43,92.58-10.88,9.6-22.16,18.75-32.45,29.02-9.22-1.54-18.42-3.29-27.34-6.09-3.44-1.08-5.89-.32-8.32,1.94-4.96,4.63-9.97,9.23-14.97,13.82-2.23,2.05-4.4,4.04-7.27,.67-2.65-3.12-.59-4.93,1.51-6.86,4.86-4.47,10.12-8.52,14.1-13.89Z"/>
        <path class="cls-3" d="M306.21,23.73c.14-.15,.27-.31,.4-.47,.54,.14,1.07,.28,1.6,.42,0,0,.26,.27,.26,.27l.32-.17c17.86,4.77,35.3,10.64,51.62,19.52,1.82,.99,3.56,2.15,5.33,3.23-34.6,23.1-69.21,46.18-103.78,69.32-44.92,30.07-89.8,60.21-134.72,90.29-36.44,24.4-72.9,48.77-109.38,73.1-3.04,2.03-5.47,5.19-9.5,5.54-1.13-9.37-1.43-18.77-.98-28.2,1.07-.71,2.2-1.35,3.21-2.14,31.41-24.48,62.81-48.98,94.22-73.48,34.97-27.28,69.95-54.55,104.92-81.82"/>
        <path class="cls-3" d="M248.96,68.51c.18-.2,.4-.36,.64-.47"/>
        <path class="cls-3" d="M228.31,84.66c.91-.71,1.82-1.41,2.74-2.12"/>
        <path class="cls-3" d="M224.48,87.64c.55-.43,1.1-.86,1.66-1.28"/>
        <path class="cls-7" d="M222.3,89.35c-.56,.42-1.12,.84-1.68,1.26"/>
        <path class="cls-7" d="M226.13,86.35c-.55,.43-1.1,.86-1.66,1.28"/>
        <path class="cls-7" d="M231.05,82.54c-.91,.71-1.82,1.41-2.74,2.12"/>
        <path class="cls-7" d="M234.88,79.54c-.56,.42-1.13,.83-1.69,1.25"/>
        <path class="cls-7" d="M296.5,30.45c-5.66,4.66-12.18,8.32-16.86,14.15-.24,.11-.44,.26-.63,.44"/>
        <path class="cls-7" d="M209.74,99.14c-34.97,27.27-69.95,54.55-104.92,81.82-31.41,24.49-62.81,48.99-94.22,73.48-1.01,.79-2.14,1.43-3.21,2.14-.26-27.96,4.31-55.01,15.09-80.89,2.29,.23,3.34-1.79,4.9-2.82,31.72-20.87,63.51-41.64,95.09-62.71,44.27-29.55,88.39-59.32,132.55-89.03,3.42-2.3,7.07-3.82,11.14-4.31,7.18,.9,14.46,1.12,21.54,2.76,5.7,1.32,9.88-1.55,14-4.8,5.44-4.31,10.96-8.52,16.36-12.89,2.43-1.96,4.96-2.9,7.23-.36,2.38,2.66,.37,4.88-1.69,6.56-4.64,3.77-9.43,7.33-14.12,11.03-1.34,1.06-3.16,1.88-2.85,4.12-.13,.16-.27,.32-.41,.47"/>
        <path class="cls-3" d="M211.34,499.85c10.29-10.27,21.57-19.42,32.45-29.02,35.06-30.95,70.28-61.73,105.43-92.58,36-31.6,72-63.2,108-94.8,10.09-8.86,20.18-17.72,30.31-26.54,1.13-.98,1.91-2.78,3.95-2.2,.18,.26,.52,.52,.53,.78,.74,17.31-1.05,34.39-4.58,51.32-.46,.13-1.04,.13-1.37,.41-15.36,13.03-30.73,26.04-46.01,39.16-10.52,9.03-20.88,18.25-31.37,27.31-13.04,11.28-26.15,22.48-39.21,33.73-10.02,8.63-20,17.29-30.01,25.91-10.49,9.03-21,18.03-31.5,27.05-10.51,9.02-21.09,17.97-31.51,27.09-5.52,4.83-11.57,9.11-16.07,15.05-13.91,2.18-27.7-.02-41.5-1.35-2.49-.24-5.19,.04-7.53-1.34Z"/>
        <path class="cls-5" d="M260.36,502.53c4.49-5.94,10.55-10.22,16.07-15.05,10.42-9.13,21-18.07,31.51-27.09,10.5-9.01,21.02-18.02,31.5-27.05,10.02-8.62,20-17.29,30.01-25.91,13.06-11.25,26.17-22.45,39.21-33.73,10.49-9.07,20.85-18.28,31.37-27.31,15.28-13.12,30.66-26.13,46.01-39.16,.33-.28,.91-.28,1.37-.41-.44,6.47-2.82,12.57-3.95,19.3,2.46-.44,3.67-1.97,5.05-3.17,4.62-4.05,8.97-8.43,14.1-11.87,2.21-1.48,4.43-4.13,7.08-.96,2.7,3.24,.04,5.42-2.1,7.35-7.56,6.83-15.15,13.63-22.88,20.27-4.51,3.87-7.94,8.29-10.26,13.88-15.73,37.87-39.42,69.94-70.76,96.21-26.2,21.97-56.21,36.75-88.95,46.1-15.58,4.45-31.44,7.46-47.62,8.55-2.25,.15-4.51,.05-6.77,.07Z"/>
        <path class="cls-4" d="M266.15,16.83c-4.08,.49-7.73,2.01-11.14,4.31-44.16,29.71-88.28,59.48-132.55,89.03-31.58,21.08-63.36,41.85-95.09,62.71-1.56,1.03-2.61,3.04-4.9,2.82,4.02-13.15,10.53-25.22,17.19-38.47-4.73,2.42-7.52,5.51-10.76,7.96-1.8,1.36-3.49,2.88-5.35,4.15-2.14,1.47-4.76,3.4-6.87,.7-2.25-2.89-.36-5.42,2.13-7.42,4.16-3.34,8.35-6.65,12.43-10.09,9.4-7.93,19-15.65,28-24.01,5.9-5.48,10.81-12.02,16.28-17.98,14.69-16.01,31.81-29.23,50.34-40.14,25.19-14.83,52.4-24.92,81.39-29.96,19.54-3.39,39.15-4.18,58.89-3.62Z"/>
        <path class="cls-6" d="M391.46,63.46c-.77,1-1.62,1.84-3.04,1.55,.13-.94,.04-1.96,1.02-2.56"/>
        <polyline class="cls-2" points="308.8 23.79 308.48 23.96 308.22 23.68"/>
      </g>
      <ellipse class="cls-1" cx="249.39" cy="260.75" rx="214.08" ry="214.86"/>
      <g>
        <path d="M114.95,260.49c0-32.78,.02-65.56-.03-98.34,0-2.34,.9-3.75,2.91-4.9,23.59-13.44,47.16-26.91,70.68-40.46,2.3-1.32,4.12-1.2,6.33,.07,23.93,13.76,47.9,27.44,71.86,41.15,30.75,17.6,61.5,35.21,92.26,52.82,17.75,10.16,35.49,20.35,53.29,30.43,2.32,1.31,3.33,2.83,3.28,5.56-.16,9.44-.12,18.88-.02,28.32,.02,2.25-.8,3.6-2.75,4.71-52.77,30.12-105.52,60.28-158.27,90.43-19.67,11.25-39.37,22.45-58.99,33.8-2.79,1.61-4.94,1.63-7.75,0-23.19-13.36-46.46-26.6-69.74-39.81-2.17-1.23-3.11-2.7-3.1-5.23,.08-26.21,.05-52.42,.05-78.63,0-6.65,0-13.29,0-19.94Zm43.71-119.63c-.67,.32-1.29,.57-1.86,.9-11.42,6.52-22.83,13.07-34.28,19.54-1.47,.83-1.66,1.89-1.65,3.35,.03,53.1,.1,106.2-.11,159.3-.02,4.81,1.45,7.25,5.63,9.58,21.13,11.75,42.06,23.87,63.05,35.87,1.22,.7,2.25,1.27,3.76,.4,11.57-6.7,23.2-13.32,34.81-19.96,30.55-17.48,61.09-34.98,91.65-52.45,28.98-16.57,57.97-33.12,86.96-49.68,.67-.38,1.26-.88,2.2-1.55-12.65-7.24-24.88-14.24-37.55-21.48,.31,1.87,.68,3.17,.7,4.48,.07,4.68,.21,9.38-.05,14.04-.14,2.49-.61,5.15-1.68,7.38-2.7,5.63-7.97,8.54-13.56,10.4-12.93,4.31-25.94,4.56-38.52-1.28-8-3.72-12.94-8.47-12.4-18.33,.18-3.39-.18-6.81,.1-10.19,.22-2.58,.6-5.32,1.72-7.6,2.93-5.96,8.55-8.86,14.53-10.92,6.55-2.26,13.37-2.92,20.29-2.48,.7,.04,1.41-.06,2.11-.1,.05-.21,.11-.41,.16-.62-15.54-8.89-31.08-17.79-47.08-26.94,.31,1.83,.66,2.99,.67,4.16,.06,4.98,.19,9.98-.05,14.95-.11,2.27-.61,4.69-1.62,6.71-2.97,5.98-8.57,8.75-14.57,10.83-7.47,2.59-15.19,3.2-22.99,2.31-7.5-.86-14.69-2.83-20.71-7.64-3.7-2.96-6.05-6.73-6.02-11.66,.02-4.46,.13-8.92-.02-13.37-.25-7.04,3.44-11.66,9.18-15.01,8.28-4.83,17.32-6.41,26.82-5.8,.89,.06,1.79,0,2.69,0,.04-.23,.07-.47,.11-.7-15.52-8.88-31.05-17.76-46.89-26.82,.22,2.11,.5,3.72,.52,5.33,.06,4.23-.08,8.46,.03,12.69,.21,7.39-3.77,12.17-9.81,15.62-5.84,3.34-12.22,5-18.93,5.42-10.66,.67-20.82-.75-29.89-6.88-4.86-3.28-7.61-7.62-7.47-13.64,.14-5.95,.03-11.9,.03-18.16Zm33.64,258c.91-.43,1.46-.65,1.96-.94,11.16-6.35,22.33-12.7,33.48-19.08,31.81-18.18,63.62-36.38,95.43-54.57,27.99-16,55.98-32.01,84-47.96,1.8-1.02,2.57-2.16,2.53-4.27-.14-7.17-.05-14.35-.07-21.52,0-.86-.11-1.71-.2-2.94-1.09,.55-1.83,.88-2.53,1.28-32.48,18.56-64.96,37.12-97.43,55.69-38.47,22-76.94,44.01-115.43,65.99-1.36,.77-1.9,1.67-1.88,3.24,.07,7.55,.01,15.11,.01,22.66,0,.66,.08,1.33,.15,2.43Zm-71.09-66.93c-.17,.69-.3,.98-.3,1.26-.02,8.15-.07,16.31,.06,24.46,.01,.87,.94,2.05,1.76,2.52,21.9,12.55,43.83,25.03,65.77,37.51,.63,.36,1.31,.63,2.34,1.11,.06-1.17,.14-1.96,.14-2.76,0-7.17-.09-14.35,.06-21.52,.04-2.2-.75-3.36-2.63-4.43-21.75-12.34-43.45-24.77-65.17-37.17-.57-.33-1.18-.58-2.02-.99Zm141.53-127.13c7.48,.37,13.82-.53,19.84-2.82,5.45-2.07,10.48-4.84,13.35-10.34,2.36-4.52,1.04-9.48-3.36-12.01-5.01-2.87-10.01-5.77-15.05-8.58-1.04-.58-2.22-1-3.39-1.23-5.74-1.09-11.51-1.14-17.26-.19-7.17,1.17-13.94,3.39-19.26,8.59-3.39,3.31-5.1,7.26-3.46,12.08,1.9,5.56,6.46,8.4,11.4,10.71,5.73,2.68,11.9,3.64,17.19,3.8Zm73.54,42.16c7.4,.24,13.6-.51,19.51-2.64,5.56-2,10.64-4.82,13.66-10.31,2.5-4.54,1.27-9.65-3.19-12.21-4.87-2.8-9.69-5.71-14.67-8.32-1.96-1.03-4.26-1.82-6.45-1.95-4.23-.26-8.53-.27-12.75,.13-7.95,.75-15.44,2.98-21.22,8.85-3.5,3.55-5.32,7.72-3.12,12.73,2.04,4.64,5.96,7.42,10.31,9.48,5.97,2.82,12.34,4.3,17.92,4.25ZM193.56,126.95c-.76-.04-1.54-.2-2.28-.1-3.74,.5-7.82,.3-11.13,1.77-5.95,2.65-11.47,6.25-17.07,9.62-1.14,.69-2.25,1.97-2.65,3.21-1.16,3.65-.51,7.12,1.87,10.23,4,5.23,9.73,7.65,15.8,9.32,9.79,2.68,19.62,2.42,29.3-.62,6.15-1.93,11.61-4.91,14.86-10.84,2.44-4.45,1.12-9.52-3.25-12.01-2.91-1.65-5.82-3.3-8.69-5.01-5.18-3.07-10.27-6.39-16.76-5.57Zm113.79,108.58c0,3.92-.48,7.71,.11,11.32,1,6.16,5.87,9.43,11.09,11.71,14.43,6.3,28.89,5.94,42.97-1.15,5.87-2.95,9.52-7.65,9.38-14.59-.05-2.49,0-4.99,0-7.13-3.35,2.6-6.26,5.6-9.77,7.44-10.36,5.45-21.51,6.12-32.87,3.98-7.8-1.47-14.85-4.43-19.91-10.9-.2-.26-.57-.4-.99-.68Zm-147.12-84.14c-.22,.05-.45,.11-.67,.16,.18,3.7-.01,7.46,.62,11.08,1.04,5.95,5.66,9.28,10.72,11.49,14.45,6.32,28.97,6.32,43.16-.93,5.83-2.98,9.61-7.56,9.56-14.49-.02-2.56,0-5.11,0-7.67-.28-.08-.56-.17-.84-.25-.13,.27-.24,.56-.4,.82-3.13,4.93-8,7.68-13.26,9.47-10.48,3.56-21.24,3.99-31.92,.91-6.01-1.73-11.77-4.2-15.72-9.45-.33-.44-.82-.77-1.24-1.15Zm73.72,42.4c-.23,.01-.45,.03-.68,.04,.17,3.72-.05,7.51,.61,11.14,1.08,5.94,5.72,9.27,10.82,11.42,14.59,6.17,29.25,6.06,43.44-1.24,5.02-2.58,8.71-6.64,8.9-12.77,.08-2.56,.05-5.13,.03-7.7,0-.44-.25-.88-.24-.85-2.82,2.25-5.43,4.78-8.46,6.65-5.8,3.58-12.36,5.14-19.13,5.45-10.52,.48-20.74-.67-29.6-7.05-2.06-1.48-3.81-3.38-5.7-5.08Zm-48.42-68.06h11.88"/>
        <path d="M224.67,236.54c0,2.11-.08,4.23,.01,6.34,.33,7.12-3.37,12.08-9.25,15.19-14.71,7.78-29.9,7.96-45.11,1.43-3.91-1.68-7.47-4.27-9.64-8.06-1.1-1.9-1.94-4.23-2-6.39-.18-5.87,.07-11.77,.25-17.65,.1-3.21,1.99-5.66,4.12-7.83,4.99-5.1,11.45-7.43,18.26-8.62,9.98-1.74,19.87-1.29,29.42,2.58,4.77,1.94,8.96,4.68,11.78,8.95,1.23,1.86,1.78,4.32,2.1,6.58,.35,2.44,.08,4.97,.08,7.46,0,0,0,0-.01,0Zm-31-25.61c-3.63,.32-7.28,.5-10.89,1.01-7.15,1-13.75,3.44-18.97,8.56-3.38,3.31-5.03,7.3-3.21,12.11,1.93,5.12,6.05,8.02,10.73,10.21,9.73,4.55,19.99,5.09,30.41,3.28,6.6-1.15,12.73-3.46,17.66-8.32,4.11-4.06,5.3-10.12,2.38-14.41-2.63-3.85-6.29-6.53-10.56-8.36-5.58-2.39-11.41-3.72-17.54-4.08Zm29.49,24.42c-.14,.04-.31,.04-.42,.13-.17,.14-.33,.31-.46,.49-3.4,4.99-8.37,7.82-13.94,9.65-6.87,2.25-13.99,3.09-21.18,2.39-9.95-.97-19.35-3.4-26.02-11.69-.23-.29-.68-.41-1.09-.64,0,3.86-.46,7.59,.1,11.15,.92,5.85,5.42,9.24,10.4,11.46,14.92,6.65,29.85,6.36,44.39-1.28,7.34-3.86,11-13.89,8.22-21.66Z"/>
        <path d="M224.67,320.69c0,2.11-.08,4.23,.01,6.34,.34,7.41-3.62,12.29-9.72,15.62-11.13,6.08-23.04,6.69-35.26,4.26-5.45-1.08-10.51-3.15-14.88-6.58-3.45-2.71-5.93-6.24-6.16-10.69-.27-5.27-.04-10.56,0-15.85,.05-6.61,3.92-10.93,9.32-13.72,14.7-7.62,29.85-7.74,44.93-1.23,5.46,2.35,10.23,6.06,11.38,12.38,.55,3.06,.1,6.3,.1,9.46,.09,0,.18,0,.27,0Zm-29.28-25.12c-8.23-.32-14.58,.49-20.66,2.61-4.16,1.45-8.12,3.52-11.2,6.79-3.09,3.28-4.59,7.04-3.05,11.58,1.83,5.38,6.1,8.35,10.92,10.6,9.66,4.52,19.86,5.07,30.19,3.23,6.65-1.18,13.03-3.31,17.85-8.42,3.31-3.51,5.14-7.47,3.21-12.35-1.97-4.98-6.05-7.86-10.67-9.97-5.79-2.65-11.94-4.09-16.6-4.07Zm-35.1,24.38c-.24,.06-.48,.12-.72,.18,.2,3.78-.02,7.63,.7,11.31,1.13,5.77,5.58,9.18,10.64,11.3,14.57,6.1,29.19,6.24,43.42-1.13,5.39-2.79,9.15-6.99,9.19-13.51,.02-2.82,0-5.64,0-8.97-.72,.67-1.05,.87-1.24,1.16-3.2,4.87-8.06,7.66-13.35,9.38-9.86,3.2-19.98,3.9-30.16,1.28-6.66-1.71-12.82-4.31-17.24-9.87-.34-.43-.83-.75-1.25-1.13Z"/>
        <path d="M232.3,279.43c0-1.89,.1-3.78-.02-5.66-.48-7.38,3.3-12.29,9.34-15.84,6.92-4.07,14.57-5.64,22.5-5.8,7.37-.15,14.63,.84,21.36,3.99,5.67,2.66,10.74,6.08,12.39,12.68,.15,.58,.4,1.17,.4,1.75-.08,6.03-.13,12.06-.35,18.09-.12,3.36-2.05,5.94-4.41,8.16-5.65,5.32-12.68,7.6-20.17,8.69-9.93,1.45-19.65,.53-28.81-3.63-5.55-2.52-10.59-6.01-11.84-12.53-.62-3.22-.39-6.6-.54-9.91h.15Zm32.82-26.24c-1.89,.17-5.65,.26-9.3,.9-6.75,1.2-13.2,3.39-18.11,8.4-1.72,1.75-3.21,4.14-3.79,6.49-1.45,5.85,1.77,9.91,6.25,13.21,5.03,3.71,10.86,5.39,16.94,6.3,11.08,1.66,21.76,.52,31.6-5.17,3.67-2.12,6.78-5.01,7.9-9.27,1.52-5.77-1.33-9.99-5.62-13.32-7.02-5.45-15.37-6.99-25.86-7.55Zm31.98,23.92c-.77,.65-1.05,.8-1.19,1.02-3.21,5.13-8.38,7.59-13.76,9.51-10.13,3.6-20.51,3.54-30.83,.88-6.25-1.61-12.09-4.17-16.17-9.54-.33-.43-.83-.74-1.25-1.11l-.7,.19c.22,3.78,.27,7.58,.75,11.33,.2,1.55,1.08,3.14,2.04,4.44,3.88,5.29,9.6,7.83,15.72,9.4,9.95,2.55,19.93,2.47,29.72-.83,5.02-1.69,9.72-4.04,13.02-8.37,3.79-4.98,2.63-10.73,2.66-16.92Z"/>
      </g>
    </g>
  </g>
</svg>